<svg xmlns="http://www.w3.org/2000/svg" version="1.2" viewBox="0 0 3762 1752" width="240" height="111">
  <style>
    .lg_a, .lg_b, .lg_c {
      stroke: #000;
      paint-order: stroke fill markers;
      stroke-miterlimit: 100;
    }

    .lg_a, .lg_b {
      fill: #fff;
    }

    .lg_a {
      stroke-width: 8.7;
    }

    .lg_b {
      stroke-width: 17.4;
    }

    .lg_c {
      fill: none;
      stroke-width: 17.4
    }

    .lg_d {
      fill: #ebbcc9
    }
  </style>
  <path class="lg_a" fill-rule="evenodd" d="m3429 1329.4c16 5.7 28.8 17.6 42.3 27.4 35 25.4 135.8 106 79.3 142-40.2 25.7-124.7 13.8-171.2 16.8-112.3 7.3-267.7 6.6-372.8 51.6-61.4 26.2-156.2 91.9-96 166.2 12.7 15.6 50.4-11.5 60.5-21.2 64-61.8 129.1-100.5 219.7-118.7 112.1-22.4 223.6-43.8 338.5-48.4 33.6-1.4 110.3 8.8 128.1-30.6 10.2-22.3-26.3-53.5-39.6-67.5-47-49.9-195.6-120.1-188.8-117.6z" />
  <path class="lg_b" d="m3654.5 587.5c-60.5 309-132 554.3-160.1 548.8-28.1-5.5-1.9-259.7 58.5-568.6 60.5-309 132-554.4 160.1-548.9 28.1 5.5 1.9 259.7-58.5 568.7z" />
  <path class="lg_c" d="m3520.2 753.4l1.6-8.2 94.9 18.7-1.6 8.2z" />
  <path class="lg_d" fill-rule="evenodd" d="m3655.2 590.1c-12.6 64.5-25.7 126.2-38.8 183.3l-97.4-18.5c9.5-59.1 20.8-122.6 33.7-188.5 60.2-308.4 131.8-553 160.3-547.6 28.6 5.6 2.8 260.9-57.8 571.3z" />
  <path class="lg_a" fill-rule="evenodd" d="m3427.8 1304.6c9.2-4.1 18.7-9.3 27.3-14.7 27.8-17.3 52.3-31 73.7-56 51.9-60.6 102.3-206.5-4.5-240-39.2-12.2-100.6 14.1-109.4 59.6-9.1 47.2 22.7 118.6 20.3 174.5-0.9 21.4-5.5 41.5-14.6 60.8-3.2 6.8-6 13.4-9.9 19.8-1.8 3-8.6 11.1-6 8.7 2.6-2.4 18.5-10.6 23.1-12.7z" />
  <path fill-rule="evenodd" d="m63.1 1215.1v127.2h-42.3v-208.7h33.6l8.7 18.3q10.4-10 25.3-16.6 14.8-6.5 32.2-6.5 11.3 0 25.7 3.5 14.4 3.4 26.6 13 12.6 9.6 20.9 26.6 8.7 17 8.7 44v126.4h-40.1v-126.8q0-13.5-4.3-22.7-3.9-9.5-10.9-15.2-6.6-5.7-15.3-7.9-8.2-2.6-17.4-2.6-7 0-16.1 2.6-8.7 2.7-16.6 8.8-7.8 5.6-13.5 14.8-5.2 8.7-5.2 21.8zm358.6-81.5h35.7v208.7h-35.7l-6.5-23.9q-10.9 14.3-27.9 21.7-17 7.5-34.5 7.5-21.7 0-40.9-8.3-18.7-8.7-33.1-23.6-14-14.8-22.2-34.8-8.3-20.1-8.3-42.7 0-22.7 8.3-42.7 8.2-20.1 22.2-34.9 14.4-14.8 33.1-23.1 19.2-8.7 40.9-8.7 17.5 0 33.6 6.9 16.1 6.6 28.8 21zm-68.9 176.5q12.6 0 24-5.7 11.3-5.7 19.6-15.2 8.3-10.1 13.1-23.1 4.8-13.1 4.8-27.9 0-14.9-4.8-27.9-4.8-13.1-13.1-22.7-8.3-10-19.6-15.7-11.4-5.6-24-5.6-12.6 0-24 5.6-11.3 5.7-19.6 15.7-8.2 9.6-13 22.7-4.8 13-4.8 27.9 0 14.8 4.8 27.9 4.8 13 13 23.1 8.3 9.5 19.6 15.2 11.4 5.7 24 5.7zm173 115.5l48.4-106.8-88.5-185.2h47.1l64.5 135.5 63.1-135.5h46.7l-134.7 292zm375.6-401.4h42.3v318.1h-33.6l-8.7-21.8q-12.6 12.7-28.7 20.1-16.2 7-37.1 7-21.8 0-40.1-8.3-18.3-8.7-31.8-23.6-13.5-14.8-21.3-34.8-7.4-20.1-7.4-42.7 0-22.7 7.4-42.7 7.8-20.1 21.3-34.9 13.5-14.8 31.8-23.1 18.3-8.7 40.1-8.7 21.8 0 37.9 7.4 16.2 7 27.9 20zm-62.3 285.9q13.1 0 24-4.3 11.3-4.4 19.6-13.1 8.7-9.2 13.5-22.7 4.8-13.5 4.8-31.8 0-19.6-4.8-33.1-4.8-13.5-13.5-21.8-8.3-8.7-19.6-12.2-10.9-3.9-24-3.9-12.6 0-24 5.6-11.3 5.3-19.6 14.9-8.2 9.6-13 22.6-4.8 13.1-4.8 27.9 0 14.8 4.8 27.9 4.8 13.1 13 23.1 8.3 9.6 19.6 15.3 11.4 5.6 24 5.6zm261.4 37.5q-22.6 0-42.7-8.3-19.6-8.7-34.4-23.5-14.8-14.8-23.5-34.9-8.3-20-8.3-42.7 0-22.6 7.9-42.7 8.2-20 21.7-34.9 14-14.8 32.3-23.1 18.3-8.7 39.2-8.7 21.4 0 39.2 7.4 18.3 7.4 31.4 23.1 13.5 15.7 20.9 40.1 7.4 24 7.4 57.6h-155.1q3 11.3 9.6 21.3 6.5 9.6 15.2 17 9.2 7 20.1 10.9 11.3 3.9 23.5 3.9 16.6 0 30.5-6.1 14.4-6.1 24.4-16.1l26.2 26.2q-15.3 15.2-37.5 24.4-21.8 9.1-48 9.1zm-7.8-180.4q-10 0-19.2 3.9-8.7 3.9-16.5 10.9-7.4 7-13.1 16.6-5.2 9.5-7.8 20.9h110.2q-0.9-10.5-4.8-20.1-3.9-9.6-10.9-16.5-7-7.4-16.5-11.4-9.2-4.3-21.4-4.3zm186.5 47.9v127.3h-42.3v-208.8h33.6l8.7 18.3q10.5-10 25.3-16.5 14.8-6.6 32.2-6.6 11.3 0 25.7 3.5 14.4 3.5 26.6 13.1 12.6 9.6 20.9 26.6 8.7 17 8.7 44v126.4h-40.1v-126.8q0-13.6-4.3-22.7-3.9-9.6-10.9-15.3-6.5-5.6-15.3-7.8-8.2-2.6-17.4-2.6-7 0-16.1 2.6-8.7 2.6-16.6 8.7-7.8 5.7-13.5 14.8-5.2 8.7-5.2 21.8zm288 132.5q-21.8 0-40.9-8.3-18.8-8.7-33.2-23.5-13.9-14.8-22.2-34.9-8.3-20-8.3-42.7 0-22.6 8.3-42.7 8.3-20 22.2-34.9 14.4-14.8 33.2-23.1 19.1-8.7 40.9-8.7 21.4 0 40.5 8.7 19.2 8.3 33.2 23.1 14.3 14.9 22.6 34.9 8.3 20.1 8.3 42.7 0 22.7-8.3 42.7-8.3 20.1-22.6 34.9-14 14.8-33.2 23.5-19.1 8.3-40.5 8.3zm0-180.9q-12.6 0-23.9 5.7-11.4 5.7-20.1 15.3-8.3 9.6-13.1 22.6-4.8 13.1-4.8 27.9 0 14.8 4.8 27.9 4.8 13.1 13.1 23.1 8.7 9.6 20.1 15.3 11.3 5.6 23.9 5.6 12.7 0 24-5.6 11.3-5.7 19.6-15.3 8.3-10 13.1-23.1 4.8-13.1 4.8-27.9 0-14.8-4.8-27.9-4.8-13-13.1-22.6-8.3-9.6-19.6-15.3-11.3-5.7-24-5.7zm353.8-33.1l-86.7 208.8h-56.2l-86.3-208.8h45.8l68.8 166.1 68.9-166.1zm197.8 0h35.7v208.8h-35.7l-6.5-24q-10.9 14.4-27.9 21.8-17 7.4-34.4 7.4-21.8 0-41-8.3-18.7-8.7-33.1-23.5-14-14.8-22.2-34.9-8.3-20-8.3-42.7 0-22.6 8.3-42.7 8.2-20 22.2-34.9 14.4-14.8 33.1-23.1 19.2-8.7 41-8.7 17.4 0 33.5 7 16.1 6.5 28.8 20.9zm-68.9 176.5q12.7 0 24-5.6 11.3-5.7 19.6-15.3 8.3-10 13.1-23.1 4.8-13.1 4.8-27.9 0-14.8-4.8-27.9-4.8-13-13.1-22.6-8.3-10.1-19.6-15.7-11.3-5.7-24-5.7-12.6 0-23.9 5.7-11.4 5.6-19.7 15.7-8.2 9.6-13 22.6-4.8 13.1-4.8 27.9 0 14.8 4.8 27.9 4.8 13.1 13 23.1 8.3 9.6 19.7 15.3 11.3 5.6 23.9 5.6zm147.3 9.6q0-11.3 7.8-19.2 7.9-8.2 19.2-8.2 11.3 0 19.2 8.2 7.8 7.9 7.8 19.2 0 11.3-7.8 19.2-7.9 7.8-19.2 7.8-11.3 0-19.2-7.8-7.8-7.9-7.8-19.2zm212.2-20.9q3.9-3.5 7-7.8 3-4.4 3-10.1 0-6.9-5.2-11.7-4.8-4.8-12.2-7.9-7-3.5-14.8-5.2-7.9-1.8-13.1-3.1-14.4-3.5-27-8.2-12.7-5.3-22.2-12.2-9.2-7.5-14.9-17-5.2-10.1-5.2-23.6 0-12.6 6.1-23.5 6.1-11.3 16.1-19.6 10.5-8.7 24-13.5 13.9-5.3 29.2-5.3 13.5 0 25.7 4 12.2 3.9 21.8 10.9 10 6.5 16.6 16.1 6.9 9.6 9.1 21.3l-37.9 9.2q-2.6-10.5-11.3-17.4-8.7-7-24-7-5.2 0-10.9 1.7-5.7 1.3-10.5 4.4-4.7 3-8.2 7.4-3.1 4.3-3.1 10 0 6.1 3.5 10.5 3.9 4.3 9.2 7.4 5.2 2.6 11.3 4.3 6.1 1.8 11.3 3.1 23.1 5.7 38.4 12.2 15.2 6.5 24.4 14.4 9.1 7.8 12.6 17.4 3.9 9.2 3.9 20.9 0 14-6.5 26.2-6.1 12.2-17.4 21.3-10.9 8.7-26.6 14-15.3 4.8-33.1 4.8-27.1 0-48.4-13.1-20.9-13.5-28.3-35.7l35.7-16.2q7 15.3 17.9 21 10.9 5.2 24.8 5.2 17.4 0 29.2-9.6zm208.7 43.1q-17.9 6.1-35.3 7.5-17.4 1.3-31.4-4.8-13.9-6.6-22.6-22.3-8.7-16.1-8.7-44.9v-105.9h-30.5v-29.2l30.5-8.7v-55.8h42.2v55.8h56.7v37.9h-56.7v112.5q0 10.4 2.2 16.5 2.6 6.1 8.3 9.2 5.7 3 14.8 3 9.2 0 22.2-1.7zm190.9 0.4l-8.7-18.7q-10.9 10-25.7 16.6-14.4 6.5-32.3 6.5-11.3 0-25.7-3.1-14.4-3.4-27-13-12.2-9.6-20.9-26.2-8.3-17-8.3-44v-126.8h40.1v126.8q0 13.5 3.9 23.1 4.4 9.2 10.9 14.8 7 5.7 15.7 8.3 8.7 2.6 17.8 2.6 7 0 15.7-2.6 9.2-2.6 17-8.3 7.9-6.1 13.1-15.2 5.7-9.2 5.7-22.3v-127.2h42.2v208.7zm245.8-318.1h42.2v318.1h-33.5l-8.7-21.8q-12.7 12.7-28.8 20.1-16.1 7-37 7-21.8 0-40.1-8.3-18.3-8.7-31.8-23.5-13.5-14.9-21.4-34.9-7.4-20.1-7.4-42.7 0-22.7 7.4-42.7 7.9-20.1 21.4-34.9 13.5-14.8 31.8-23.1 18.3-8.7 40.1-8.7 21.8 0 37.9 7.4 16.1 7 27.9 20zm-62.3 285.9q13 0 23.9-4.3 11.4-4.4 19.6-13.1 8.8-9.1 13.6-22.7 4.7-13.5 4.7-31.8 0-19.6-4.7-33.1-4.8-13.5-13.6-21.8-8.2-8.7-19.6-12.2-10.9-3.9-23.9-3.9-12.7 0-24 5.7-11.3 5.2-19.6 14.8-8.3 9.6-13.1 22.6-4.8 13.1-4.8 27.9 0 14.8 4.8 27.9 4.8 13.1 13.1 23.1 8.3 9.6 19.6 15.3 11.3 5.6 24 5.6zm206.1-176.5l0.4 208.8h-42.3v-208.8zm-20.9-45.3q-11.3 0-19.1-7.8-7.9-8.3-7.9-19.7 0-11.3 7.9-19.1 7.8-7.9 19.1-7.9 11.4 0 19.2 7.9 7.8 7.8 7.8 19.1 0 11.4-7.8 19.7-7.8 7.8-19.2 7.8zm165.6 259.3q-21.8 0-41-8.3-18.7-8.7-33.1-23.5-13.9-14.8-22.2-34.9-8.3-20-8.3-42.7 0-22.6 8.3-42.7 8.3-20 22.2-34.8 14.4-14.9 33.1-23.1 19.2-8.8 41-8.8 21.4 0 40.5 8.8 19.2 8.2 33.1 23.1 14.4 14.8 22.7 34.8 8.3 20.1 8.3 42.7 0 22.7-8.3 42.7-8.3 20.1-22.7 34.9-13.9 14.8-33.1 23.5-19.1 8.3-40.5 8.3zm0-180.8q-12.6 0-24 5.6-11.3 5.7-20 15.3-8.3 9.6-13.1 22.6-4.8 13.1-4.8 27.9 0 14.8 4.8 27.9 4.8 13.1 13.1 23.1 8.7 9.6 20 15.3 11.4 5.6 24 5.6 12.6 0 24-5.6 11.3-5.7 19.6-15.3 8.3-10 13.1-23.1 4.7-13.1 4.7-27.9 0-14.8-4.7-27.9-4.8-13-13.1-22.6-8.3-9.6-19.6-15.3-11.4-5.6-24-5.6z" />
</svg>
